<svg xmlns="http://www.w3.org/2000/svg" viewBox="0 0 420 194">
  <g class="asso">
    <path d="M53.58,78.779h-.151q-1.043,3.129-2.16,6.034t-2.383,6.258l-3.2,8.12H61.1l-3.129-8.12q-1.269-3.2-2.309-6.184T53.58,78.779Z" />
    <path d="M158.122,94.171a24.25,24.25,0,0,1,24.25-24.25c.611,0,1.215.03,1.816.075a91.075,91.075,0,1,0,1.59,48.182,24.524,24.524,0,0,1-3.406.243A24.25,24.25,0,0,1,158.122,94.171ZM68.254,117.665l-5.139-13.037H43.82l-5.066,13.037H31.677L50.6,70.733h6.109l18.7,46.932Zm42.351-7.189a12.338,12.338,0,0,1-3.427,4.247A15.8,15.8,0,0,1,102,117.405a21.915,21.915,0,0,1-6.555.93,42.993,42.993,0,0,1-7.264-.633,28.617,28.617,0,0,1-7.337-2.346l1.639-5.587a31.005,31.005,0,0,0,6.258,2.309,26.975,26.975,0,0,0,6.406.745A12.185,12.185,0,0,0,102,110.96a6.168,6.168,0,0,0,2.832-5.512,7.4,7.4,0,0,0-.411-2.5,6.134,6.134,0,0,0-1.415-2.2,10.484,10.484,0,0,0-2.719-1.937,27,27,0,0,0-4.321-1.713l-4.693-1.49a18.775,18.775,0,0,1-7.9-4.47,10.53,10.53,0,0,1-2.755-7.673,12.447,12.447,0,0,1,4.06-9.8q4.057-3.612,11.807-3.613a38.6,38.6,0,0,1,6.631.558,24.486,24.486,0,0,1,6.332,2.049l-1.639,5.661a32.461,32.461,0,0,0-5.773-2.123,21.94,21.94,0,0,0-5.252-.633,10.858,10.858,0,0,0-6.705,1.863,6.166,6.166,0,0,0-2.459,5.215A5.931,5.931,0,0,0,89.449,87.2a15.387,15.387,0,0,0,6,2.979l4.693,1.49q6.408,2.012,9.051,5.476a12.928,12.928,0,0,1,1.416,13.334Zm38.364,0a12.326,12.326,0,0,1-3.427,4.247,15.785,15.785,0,0,1-5.177,2.682,21.924,21.924,0,0,1-6.555.93,42.975,42.975,0,0,1-7.264-.633,28.6,28.6,0,0,1-7.338-2.346l1.639-5.587a31.005,31.005,0,0,0,6.258,2.309,26.975,26.975,0,0,0,6.406.745,12.193,12.193,0,0,0,6.854-1.863,6.171,6.171,0,0,0,2.831-5.512,7.472,7.472,0,0,0-.409-2.5,6.165,6.165,0,0,0-1.416-2.2,10.484,10.484,0,0,0-2.719-1.937,27.1,27.1,0,0,0-4.32-1.713l-4.694-1.49a18.746,18.746,0,0,1-7.9-4.47,10.527,10.527,0,0,1-2.757-7.673,12.449,12.449,0,0,1,4.059-9.8q4.061-3.612,11.808-3.613a38.574,38.574,0,0,1,6.63.558,24.474,24.474,0,0,1,6.332,2.049l-1.639,5.661a32.348,32.348,0,0,0-5.773-2.123,21.928,21.928,0,0,0-5.252-.633,10.859,10.859,0,0,0-6.7,1.863,6.163,6.163,0,0,0-2.458,5.215,5.937,5.937,0,0,0,1.824,4.544,15.391,15.391,0,0,0,6,2.979l4.692,1.49q6.406,2.012,9.052,5.476a12.514,12.514,0,0,1,2.645,7.784A12.378,12.378,0,0,1,148.969,110.476Z" />
    <circle cx="206.271" cy="118.671" r="6" class="dot dot--top"/>
    <circle cx="216.93" cy="94.171" r="6" class="dot dot--middle"/>
    <circle cx="206.271" cy="69.671" r="6" class="dot dot--bottom"/>
    <circle cx="182.372" cy="94.171" r="17.75" />
  </g>
  <g class="mast">
    <path d="M413.858,70.733v7.3H400.077v39.631h-9.089V78.033H377.58v-7.3Z" />
    <path d="M356.5,69.989a33.669,33.669,0,0,1,7.561.781,27.93,27.93,0,0,1,6.22,2.2l-2.085,7a32.944,32.944,0,0,0-5.812-2.235,20.8,20.8,0,0,0-5.437-.746,9.816,9.816,0,0,0-5.922,1.565A5,5,0,0,0,348.9,82.8a4.765,4.765,0,0,0,1.75,3.985,18.856,18.856,0,0,0,5.625,2.645l4.544,1.49a20.1,20.1,0,0,1,8.864,5.364,11.8,11.8,0,0,1,3.055,8.12,12.735,12.735,0,0,1-4.619,10.019,15.817,15.817,0,0,1-5.475,2.943,23.921,23.921,0,0,1-7.338,1.043,38.661,38.661,0,0,1-7.822-.783,30.469,30.469,0,0,1-7.3-2.495l2.086-6.929a34.932,34.932,0,0,0,6.258,2.385,24.585,24.585,0,0,0,6.406.818,10.986,10.986,0,0,0,6.3-1.563A5.173,5.173,0,0,0,363.5,105.3a5.572,5.572,0,0,0-.372-2.012,4.922,4.922,0,0,0-1.3-1.825,10.671,10.671,0,0,0-2.532-1.639,32.63,32.63,0,0,0-4.134-1.6l-4.172-1.414a22.464,22.464,0,0,1-8.233-4.731q-3.091-2.941-3.091-8.306a12.654,12.654,0,0,1,4.321-9.983Q348.3,69.988,356.5,69.989Z" />
    <path d="M307.927,70.733h9.088l17.805,46.931h-9.61l-4.171-11.547H303.533l-4.172,11.547H289.9Zm-2.234,28.606h13.036l-2.458-6.929q-1.044-3.129-1.975-5.884t-1.9-6.034h-.149q-1.044,3.055-2.012,5.922t-2.085,6Z" />
    <path d="M235.072,70.733h11.547l7.449,23.391q.966,3.056,1.826,6.072t1.526,5.921h.3q.3-1.265.708-2.793t.857-3.128q.448-1.6.857-3.166T261,94.124l7.226-23.391h11.547l3.725,46.931h-8.716q-.6-7.671-1.08-15.308t-.634-15.309l-.223-7.375h-.223q-1.118,4.4-2.384,9.014T267.7,97.1l-6.555,20.56H253.77l-6.7-20.56q-1.715-5.212-2.868-9.573t-1.974-7.859h-.149q-.151,5.811-.485,12.143t-.708,11.7l-.819,14.154H231.5Z" />
  </g>
</svg>