<svg xmlns="http://www.w3.org/2000/svg" viewBox="0 0 24 24"><path d="M12.9 10.2c.7.6 1.7 1.6 3.1 2.8 1.4-1.3 2.4-2.2 3-2.8.6-.6 1.3-1.4 2-2.4s1-1.8 1-2.5c0-.9-.4-1.6-1-2.3s-1.4-1-2.3-1c-1.1 0-2 .4-2.7 1.2-.7-.8-1.6-1.2-2.7-1.2-.9 0-1.7.4-2.3 1-.6.6-1 1.4-1 2.3 0 .7.3 1.5 1 2.5.6.9 1.3 1.7 1.9 2.4zM1 11h4v11H1zM20 17s-6.4.1-7 0-2.1-.7-2.1-.7l.3-.9 1.8.6c.3.1 2.7.1 2.7.1.3 0 .6-.1.9-.4.2-.2.3-.5.3-.8 0-.5-.3-.9-.8-1.1 0 0-6.4-2.5-7.3-2.6C8.1 11 7 11 7 11v9s5.6 1.8 7 1.8 7.4-2.3 7.9-2.9c.1-.3 0-.8-.5-1.3-.3-.4-.8-.6-1.4-.6z"/></svg>